<?xml version="1.0" encoding="iso-8859-1"?>
<!-- Generator: Adobe Illustrator 19.0.0, SVG Export Plug-In . SVG Version: 6.00 Build 0)  -->
<svg xmlns="http://www.w3.org/2000/svg" xmlns:xlink="http://www.w3.org/1999/xlink" version="1.1" id="Layer_1" x="0px" y="0px" viewBox="0 0 512 512" style="enable-background:new 0 0 512 512;" xml:space="preserve">
<path style="fill:#00C3FF;" d="M475.919,448.43H36.081c-15.182,0-27.49-12.307-27.49-27.49V91.06c0-15.182,12.307-27.49,27.49-27.49  h439.839c15.182,0,27.49,12.307,27.49,27.49V420.94C503.409,436.122,491.102,448.43,475.919,448.43z"/>
<path style="fill:#00AAF0;" d="M36.081,448.43h439.839c15.182,0,27.49-12.307,27.49-27.49V91.73L287.097,275.997  c-17.921,15.266-44.273,15.266-62.194,0L8.591,91.73V420.94C8.591,436.122,20.898,448.43,36.081,448.43z"/>
<path style="fill:#0096DC;" d="M207.077,296.924c13.636,11.616,31.011,18.013,48.923,18.013c17.913,0,35.288-6.397,48.924-18.013  l198.485-178.493V91.73L287.097,275.997c-8.961,7.633-20.029,11.45-31.097,11.45c-11.068,0-22.136-3.817-31.096-11.45L8.591,91.73  V420.94c0,15.182,12.307,27.49,27.49,27.49h439.839c15.182,0,27.49-12.307,27.49-27.49v-9.163H146.04  c-50.608,0-91.633-41.025-91.633-91.633v-140.87c0-4.885,5.722-7.528,9.441-4.359L207.077,296.924z"/>
<path d="M475.919,54.98H36.081C16.186,54.98,0,71.166,0,91.06V420.94c0,19.895,16.186,36.081,36.081,36.081h439.839  c19.895,0,36.081-16.186,36.081-36.081V91.06C512,71.166,495.814,54.98,475.919,54.98z M36.081,72.161h439.839  c9.169,0,16.827,6.566,18.537,15.241L280.14,269.968c-13.988,11.916-34.291,11.916-48.279,0L17.543,87.402  C19.253,78.727,26.911,72.161,36.081,72.161z M475.919,439.839H36.081c-9.169,0-16.827-6.566-18.537-15.241L179.1,286.975  c3.611-3.077,4.046-8.499,0.969-12.11c-3.079-3.613-8.499-4.044-12.11-0.969L17.181,402.337V109.663l203.538,173.385  c10.222,8.707,22.751,13.06,35.281,13.06c12.53,0,25.059-4.354,35.281-13.06l203.538-173.385v292.674L344.04,273.896  c-3.609-3.077-9.033-2.644-12.11,0.969c-3.077,3.611-2.642,9.034,0.969,12.11l161.557,137.623  C492.747,433.273,485.089,439.839,475.919,439.839z"/>
<g>
</g>
<g>
</g>
<g>
</g>
<g>
</g>
<g>
</g>
<g>
</g>
<g>
</g>
<g>
</g>
<g>
</g>
<g>
</g>
<g>
</g>
<g>
</g>
<g>
</g>
<g>
</g>
<g>
</g>
</svg>
